<svg width="30" height="30" viewBox="0 0 30 30" fill="none" xmlns="http://www.w3.org/2000/svg">
<path d="M14.9003 0.00237686C18.9417 0.00237686 22.4157 1.4651 25.3245 4.39053C28.2333 7.31597 29.6866 10.8825 29.6866 15.0902C29.6866 19.2979 28.2523 22.7861 25.3839 25.6712C22.5154 28.5587 19.0344 30 14.9406 30C10.8469 30 7.09039 28.5183 4.25518 25.5525C1.4176 22.589 0 19.0676 0 14.9905C0 12.2598 0.660121 9.74751 1.98274 7.45607C3.30299 5.16464 5.11952 3.35048 7.43233 2.00887C9.74513 0.669623 12.2337 0 14.9026 0L14.9003 0.00237686ZM14.8409 5.32136C12.198 5.32136 9.97546 6.2403 8.17318 8.0782C6.3709 9.9161 5.47095 12.2527 5.47095 15.0879C5.47095 18.246 6.60361 20.744 8.87367 22.5819C10.6356 24.0185 12.6563 24.738 14.9383 24.738C17.517 24.738 19.7135 23.8072 21.5276 21.9432C23.3418 20.0791 24.2489 17.7806 24.2489 15.0499C24.2489 12.3191 23.3347 10.0301 21.5086 8.14706C19.6826 6.26405 17.46 5.32136 14.8409 5.32136Z" fill="#333333"/>
</svg>
